<?xml version="1.0" encoding="UTF-8"?>
<!DOCTYPE svg PUBLIC "-//W3C//DTD SVG 1.1//EN" "http://www.w3.org/Graphics/SVG/1.1/DTD/svg11.dtd">
<!-- Creator: CorelDRAW 2021 (64 Bit) -->
<svg xmlns="http://www.w3.org/2000/svg" xml:space="preserve" width="60mm" height="60mm" version="1.1" style="shape-rendering:geometricPrecision; text-rendering:geometricPrecision; image-rendering:optimizeQuality; fill-rule:evenodd; clip-rule:evenodd"
viewBox="0 0 6000 6000"
 xmlns:xlink="http://www.w3.org/1999/xlink"
 xmlns:xodm="http://www.corel.com/coreldraw/odm/2003">
 <defs>
  <style type="text/css">
   <![CDATA[
    .fil0 {fill:#FEFEFE}
   ]]>
  </style>
 </defs>
 <g id="Camada_x0020_1">
  <metadata id="CorelCorpID_0Corel-Layer"/>
  <path class="fil0" d="M530.28 3383.21l3.08 -350.84c14.77,-25.88 77.67,-9.29 93.43,7.07 32.52,33.76 20.36,160.64 20.25,217.52 -0.19,92.29 -9.57,145.45 -116.76,126.25zm6.41 -870.15c12.43,-13.7 19.98,-11.77 46.94,-7.14 109.44,18.78 56.59,258.84 43.04,273.99 -12.48,13.96 -60.02,30.47 -85.09,14.92 -24.57,-15.25 -12.85,-272.99 -4.89,-281.77zm304.15 379.71c31.88,-27.06 87.96,-33 116.63,-69.77 59.71,-76.58 57.09,-345.5 -34.78,-452.21 -123.19,-143.08 -438.15,-105.41 -640.28,-105.66 -135.88,-0.17 -128.39,-12.66 -127.59,59.65 4.31,390.9 -16.01,967.02 2.1,1303.39 105.11,15.93 330.5,4.43 447.22,3.5 378.46,-3.03 430.11,-30.09 416.68,-476.62 -7.2,-239.39 -121.74,-209.49 -179.98,-262.28z"/>
  <path class="fil0" d="M3547.93 3024.94c125.24,-5.12 112.83,22.55 112.86,181.1 0.02,125.12 23.63,181.59 -113.82,181l0.96 -362.1zm-3.76 -479.3c0,-37.42 -0.31,-43.46 39.57,-42.45 25.8,0.65 42.53,7.34 55.09,22.05 26.46,31.01 22.47,82.39 22.21,130.45 -0.2,39.58 4.12,116.63 -25.99,133.96 -16.37,9.42 -47.57,13.28 -66.99,9.4 -30.78,-6.15 -23.92,-13.33 -23.88,-50.21l-0.01 -203.2zm317.14 347.13c70.61,-62 149.9,-6.55 148.31,-262.47 -1.91,-307.65 -157.47,-364.83 -433.68,-365.16 -131.38,-0.15 -268.63,-3.68 -403.09,0.67l2.92 1365.2c144.99,4.14 297.05,1.88 442.5,0.66 402.8,-3.36 422.88,-52.4 417.49,-468.06 -3.04,-233.55 -122.28,-225.57 -174.45,-270.84z"/>
  <path class="fil0" d="M5384.43 2508.23c109.16,-1.48 99.96,48.29 99.93,147.47 -0.03,105.96 8.79,139.46 -101.02,139.26l1.09 -286.73zm296.96 407.67c58.41,-17.94 90.13,-32.25 119.4,-76.39 36.68,-55.3 105.36,-440.38 -127.38,-544.11 -92.37,-41.17 -420.21,-30.07 -531.14,-30.25 -149.61,-0.25 -138.52,-14.28 -137.64,59.64 0.73,62.36 0.67,124.59 0.67,186.98 0,299.46 -15.15,878.74 1.87,1117.47 27.97,2.72 312.67,7.58 352.99,-1.12l13.45 -4.91c38.21,-89.81 -24.73,-524.5 14.09,-594.9 9.65,-5.87 0.91,-3.85 19.02,-6.52 8.6,-1.26 12.35,-1.32 21.15,-0.02 6.09,0.9 23.85,7.44 30.45,12.35 45.91,34.15 29.14,428.58 28.52,510.67l3.39 65.66 25.35 19.8c9.63,1.64 14.43,1.68 24.14,2.04l294.61 -4.42c8.93,-131.76 2.92,-295.9 1.37,-430.3 -2.44,-211.28 -36.06,-191.68 -138.23,-267.3 -12.15,-8.99 -6.8,-4.49 -16.08,-14.37z"/>
  <path class="fil0" d="M2535.79 2505.11c111.42,-5.46 101.01,53.48 100.84,150.61 -0.17,102.22 7.09,143.4 -104.53,142.53l3.69 -293.14zm287.15 413.46c121.34,-30.64 156.06,-75.18 161.4,-220.19 9.27,-251.9 -33.59,-422.31 -322.53,-430.02 -124.81,-3.33 -248.02,-3.09 -372.8,-3.2 -145.58,-0.13 -136.44,-14.21 -135.59,59.63 4.53,396.08 -15.93,955.5 1.89,1303.08l328.79 4.11c36.02,-2.57 39.07,-5.99 43.15,-28.78 11.71,-65.36 -14.88,-545.76 8.53,-572.99 13.94,-16.22 55.53,-10.08 72.5,1.28 18.68,12.51 22.39,35.61 26.75,63.22 7.58,47.93 4.66,114.95 4.66,170.6 0,110.26 -8.44,259.76 2.81,366.34l335.18 -0.5c13.54,-123.58 2.96,-303.82 3.12,-433.56 0.09,-69.48 -0.28,-143.66 -34.96,-190.99 -43.95,-59.99 -82.63,-54.84 -122.9,-88.03z"/>
  <path class="fil0" d="M1526.58 3137.95c-10.12,-73.58 23.72,-299.37 37.03,-395.65 3.18,-23.01 1.22,-106.66 22.67,-116.07 8.1,20.62 48.01,485.99 43.58,512.59l-103.28 -0.87zm-67.3 493.81c48.75,-0.01 42.01,-6.33 45.51,-52.79 2.44,-32.36 6.65,-41.36 9.29,-68.84 10.8,-112.66 -19.23,-119.16 54.41,-121.89 100.02,-3.72 78.11,3.45 86.21,89.94 5.95,63.57 2.69,98.77 16.41,153.3l374.01 -0.86c3.7,-77.3 -34.61,-265.19 -47.93,-353.93 -15.95,-106.26 -142.82,-960.78 -164.14,-1011l-483.84 -0.69c-52.13,-0.01 -47.14,-0.24 -55.52,47.73l-179.71 1316.06 345.3 2.97z"/>
  <path class="fil0" d="M4786.67 2544.08c48.83,-0.02 48.26,-0.83 48.22,-49.24 -0.05,-36.75 11.28,-205.18 -9.85,-224.94 -22.95,-21.47 -456.47,-7.8 -521.08,-8.43 -91.62,-0.9 -92.69,-17.46 -92.74,72.5l4.13 1300.1 545.92 0.78c89.59,-0.01 98.42,22.59 98.15,-64.74 -0.44,-331.1 34.61,-182.51 -273.31,-222.2l-0.31 -285.1c273.52,-9.54 233.3,26.47 233.18,-93.84 -0.26,-252.32 31.5,-157.76 -230.6,-177.79l2.34 -246.19 195.95 -0.91z"/>
  <path class="fil0" d="M5040.45 4703.98c102.24,-136.14 370.14,-534.01 386.82,-698.03 -71.9,2.57 -46.42,11.26 -73.61,72.9 -199.82,452.98 -489.35,822.83 -896.89,1125.3 -243.59,180.8 -435.32,264.71 -711.43,372.33 -130.91,51.03 -290.34,82.39 -431.5,110.8 -459.16,92.39 -1000.27,13.89 -1416.85,-134.14 -230.21,-81.8 -516.07,-239.96 -691.17,-383.45 -302.63,-248.02 -558.59,-511.89 -744.89,-871.57 -34.68,-66.96 -61.56,-113.48 -89.93,-181.23 -7.36,-17.56 -33.74,-87.07 -40.33,-96.52 -17.03,-24.41 -67.18,-34.8 -46.75,19.9 181.91,486.91 543.73,914.14 951,1210.91 967.26,704.81 2304.48,701.38 3261.66,-15.06 203.77,-152.52 394.05,-332.63 543.87,-532.14z"/>
  <path class="fil0" d="M361.27 1823.21c59.44,-2.46 57.63,-26.58 115.91,-142.44 56.84,-112.99 233.47,-357.5 309.87,-442.21 523.38,-580.3 1187.31,-950 2052.29,-952.11 443.81,-1.08 839.69,94.65 1219.51,279.01 213.63,103.69 295.32,179.08 462.19,290.78 40.85,27.35 96.45,81.53 138.55,115.51 77.55,62.59 177.65,178.35 247.06,252.02 93.77,99.51 247.31,313.05 313.19,439.61 20.44,39.28 67.12,137.61 87.65,166.14l42.69 0.94c5.16,-56.06 -147.31,-289.55 -171.36,-329.31 -168.06,-277.84 -481.11,-591.3 -755.84,-776.74 -1192.77,-805.14 -2726.94,-594.69 -3660.62,464.02 -77.11,87.44 -379.87,489.76 -401.09,634.78z"/>
  <path class="fil0" d="M532.96 4007.03c14.58,125.77 282.42,525.16 366.95,613.63 23.39,24.47 37.06,44.76 58.05,68.77l175.63 179.82c435.06,402.22 1024.63,671.91 1714.22,673.45 288.9,0.64 594.35,-50.47 833.04,-139.44 282.91,-105.46 265.43,-106.2 492.91,-234.37 72.3,-40.74 222.29,-144.64 284.6,-199.5 151.38,-133.29 223.43,-192.18 358.82,-361.73 74.69,-93.55 362.73,-490.46 356.72,-602.84 -58.11,-3.6 -49.93,11.58 -68.13,55.04 -55.96,133.6 -225.13,398.63 -320.3,508.36 -162.89,187.81 -279.9,309.66 -488.75,460 -375.03,269.99 -864.21,462.23 -1440.45,463.88 -284.4,0.81 -587.71,-49.37 -819.77,-137.19 -219.44,-83.04 -458.19,-193.31 -624.82,-323.53 -93.13,-72.78 -179.35,-135.15 -259.51,-214.52 -229.75,-227.5 -352.83,-383.15 -509.82,-674.79 -65.5,-121.68 -38.08,-136.65 -109.39,-135.04z"/>
  <path class="fil0" d="M620.51 1826.11c55.67,2.43 53.55,-10.89 72.59,-45.6l127.3 -204.6c51.06,-78.73 135.79,-174.65 196.44,-242.91 440.88,-496.13 1110.06,-811.97 1839.43,-812.32 656.99,-0.31 1179.55,232.42 1614.19,597.58 164.69,138.36 404.18,406.32 505.96,593.01 14.22,26.09 27.31,45.8 40.82,70.03 22.36,40.1 12.13,45.35 67.89,45.88 -1.99,-65.24 -125.91,-231.71 -163.87,-287.63 -436.58,-643.1 -1241.51,-1074.29 -2073.45,-1070.96 -735.61,2.94 -1432.89,336.33 -1866.91,828.17 -72.62,82.29 -353.94,429.99 -360.39,529.35z"/>
  <path class="fil0" d="M2864.74 4748.1c448.28,0 861.96,-177.37 1168.27,-458.49 47.66,-43.74 234.48,-230.06 242.63,-284.56 -53.19,-4.31 -68.51,46.32 -137.91,126.45 -127.99,147.79 -265.83,254.35 -439.17,356.97 -223.63,132.4 -525.07,223.28 -842.29,223.13 -536.57,-0.25 -950.93,-216.7 -1287.47,-581.72 -77.67,-84.25 -80.9,-128.13 -132.75,-125.37 2.66,58.68 194,243.41 245.5,291.8 298.94,280.92 734.23,451.79 1183.19,451.79z"/>
  <path class="fil0" d="M1061.13 1478.84c12.17,-40.07 109.52,-130.19 153.54,-152.32 96.23,-48.39 153.07,-2.97 204.45,57.11 36.94,43.2 110.13,113.5 98.12,194.78 -8.34,56.39 -89.43,149.52 -125.7,174.72 -52.4,-12.87 -128.39,-98.98 -172.61,-134.96 -24.27,-19.75 -143.73,-113.19 -157.8,-139.33zm237.11 423.44c35.97,-6.5 41.72,-30.76 66.48,-60.91 51.38,-62.59 119.78,-132.54 164.04,-200.35 83.23,-127.52 33.68,-273.03 -60.28,-348.75 -119.38,-96.2 -244.33,-36.7 -336.82,53.52 -55.36,54 -209.97,214.53 -217.92,280.37 51.33,-10.62 28.98,-25.43 71.4,-57.19 32.76,-8.98 337.53,252.57 340.99,257 -10.64,51.96 -27.05,18.23 -27.89,76.31z"/>
  <path class="fil0" d="M2904.95 4249.21c11.14,-100.2 41.11,-43.67 -30.1,-180.68 -12.65,-24.34 -16.88,-34.69 -35.51,-44.44 -28.26,21.51 -81.75,118.7 -77.91,196.53 -57.8,-7.32 -132.55,-37.07 -169.04,16.49 -32.5,47.7 -12.13,120.94 35.28,141.38 15.22,-18.15 33.51,-95.56 143.76,-46.38 5.31,65.69 -12.35,12.01 -9.31,48.65 2.94,35.38 20.69,-25.69 8.18,42.75 -22.16,-5.7 -31.62,-12.3 -60.55,-1.25 -5.61,47.18 16.69,71.54 60.33,43.95 24.01,-15.18 33.42,-57.29 45.63,-81.04 17.9,35.55 -30.19,99.56 34.29,126.65 26.99,-64.99 2.85,-100.79 14.74,-125.14 38.25,32.35 5.4,95.03 103.81,81.38l-0.39 -42.82c-33.84,-24.21 -22.38,-0.66 -64.07,-12.89 -2.77,-39.09 9.63,-8.72 12.29,-36.9 2.61,-27.71 -10.83,11.26 -6.69,-41.25 28.32,-14.2 52.07,-30.15 94.63,-14.35 33.45,12.41 29.57,39.39 46.69,67.65 48.84,-18.21 79.41,-105.89 33.51,-156.41 -61.12,-67.28 -132.16,-4.95 -179.57,18.12z"/>
  <path class="fil0" d="M2627.67 1932.79c1.69,-1.81 3.54,-4.4 4.61,-5.82 34.29,-45.45 55.94,-84.96 140.77,-35.05 -2.26,59.36 5.25,3.32 -16.11,44.12 20.27,15.63 23.28,3.6 19.62,39.74 -33.87,3.43 -42.98,-21.09 -61.3,7.43 -18.12,28.22 -0.79,48 29.7,47.09 49.01,-1.48 50.76,-57.56 76.89,-85.3 0.22,51.28 -24.87,106.95 25.96,125.49 40.32,-65.72 1.83,-92.3 16.93,-123.98 28.59,14.85 9.18,46.48 44.96,72.75 46.06,33.82 63.16,7.4 58.87,-46.06l-61.67 -1.68c0.22,-2.5 1.63,-5.53 2.14,-7.22 0.48,-1.63 1.58,-4.97 2.14,-6.91 0.52,-1.82 1.53,-4.5 2.04,-6.44 0.47,-1.79 1.36,-4.19 1.76,-5.99 0.36,-1.65 1.03,-3.98 1.29,-5.6 10.96,-69.42 -24.88,-2.14 13.49,-64.81 112.04,-16.74 99.01,32.1 121.25,67.55 54.56,-11.56 68.31,-110.35 34.99,-150.82 -48.36,-58.72 -118.38,-10.64 -174.01,-2.34 12.61,-74.83 10.01,-72.71 -18.88,-125.2 -17.69,-32.15 -26.26,-59.32 -45.3,-89.26 -29.31,11.11 -43.88,62.63 -59.27,91.66 -28.94,54.56 -27.99,54.11 -19.96,123.22 -10.2,-2.51 -220.37,-88.18 -185.79,86.74 3.12,15.8 7.42,26.99 16.56,37.37 21.37,24.25 -2.29,5.83 28.32,19.32z"/>
  <path class="fil0" d="M1576.69 1826.78c49.19,-0.17 52.49,-17.31 77.46,-43.7 289.49,-305.9 767.72,-490.81 1202.12,-490.34 279.57,0.3 528.25,67.67 737.01,168.01 135.3,65.04 300.9,170.65 406.24,271.61 32.5,31.15 73.24,91.61 129.1,95.19 -5.49,-34.65 -31.23,-52.33 -51.4,-71.25 -546.86,-513.31 -1305.51,-645.97 -1981.13,-327.09 -104.26,49.2 -496.64,295.84 -519.4,397.57z"/>
  <path class="fil0" d="M1773.32 902.26c183.11,-62.73 289.68,276.08 233.26,371.26 -21.06,35.53 -86.47,74.5 -132.87,80.48 -117.96,15.2 -196.79,-123.87 -235.09,-198.11 -73.35,-142.19 32.11,-218.49 134.7,-253.63zm310.02 305.65c28.55,-66.13 3.31,-172.08 -23.45,-227.81 -110.17,-229.5 -419.56,-113.18 -496.14,60.37 -83.59,189.43 141.79,460.89 397.71,313.97 61.36,-35.23 91.17,-75.37 121.88,-146.53z"/>
  <path class="fil0" d="M2630.76 4852.78c-82.09,-27.34 -79.62,-37.29 -92.47,-4.21 19.13,21.93 12.63,7.83 37.37,25.4 -1.62,49.91 -101.57,349.96 -124.17,407.44 -40.62,-1.07 -43.04,-15.57 -69.62,-1.04 3.2,12.3 2.87,20.35 34.17,33.62 23.18,9.82 131.54,47.35 162.59,25.65 -12.8,-22.19 0.63,-6.86 -23.62,-20.56 -15.63,-8.84 -9.38,-0.05 -29.26,-13.31 0.41,-38.08 36.68,-165.26 49.35,-199.1l187.03 34.62 -23.26 201.7 -66.35 5.12c0.55,29.56 -7.29,25.36 31.8,32.06 36.38,6.23 141.5,17.92 168.17,1.8 -9.46,-39.39 -16.68,-15.08 -63.33,-30.91l26.7 -422.7c39.5,-25.01 50.77,12.16 49.48,-37.45 -31.44,-10.87 -121.88,-18.4 -144.89,0 7.16,21.45 2.31,10.15 17.46,20.85l27.49 13.33 -21.04 178.34c-36.54,0.9 -145.81,-17.01 -176.26,-28.8 -3.27,-56.17 28.7,-122.72 38.89,-184.27 1.67,-0.3 25.83,-4.57 26.29,-4.72 20.44,-7.04 8.82,-1.17 21.94,-11.67l-19.82 -11.28c-2.04,-1 -4.15,-2.06 -6.24,-3.01 -1.61,-0.73 -15.84,-6.05 -18.4,-6.9z"/>
  <path class="fil0" d="M4299.61 1525.32c-32.28,-6.44 -24.91,-2.75 -43.64,15.23 -56.74,54.47 -70.1,73.51 -43.52,113.95 39.3,59.78 73,101.23 121.59,141.77 125.18,104.44 298.09,34.98 227.29,-152.36 -19.61,-51.9 -73.54,-138.33 -74.19,-190.68 -1.25,-101.32 99.29,-90.78 155.56,-42.18 44.96,38.84 99.82,109.04 60.44,187.49 -58.24,116 42.68,32.46 74.04,-2.72 56.02,-62.82 -142.99,-238.86 -188.6,-259.23 -147.37,-65.84 -222.67,53.91 -159.14,193.96 18.01,39.7 58.32,109.66 68.53,150.53 29.45,117.88 -132.21,167.37 -214.53,13.14 -46.86,-87.81 17.06,-118.88 16.17,-168.9z"/>
  <path class="fil0" d="M3113.58 1093.59c-223.97,69.69 -294.29,-154.87 -243.38,-339.3 21.16,-76.67 86.69,-120.34 180.74,-117.98 172.67,4.32 130.62,105.52 169.4,136.02 9.03,-4.47 19.13,3.29 26.06,-48.71 3.16,-23.69 2.85,-42.62 0.94,-66.05 -66.63,-48.65 -218.69,-65.2 -317.85,-34.86 -205.58,62.9 -208.71,361.4 -52.75,463.09 94.07,61.34 178.28,49.02 301.02,36.11 13.24,-43.3 16.59,-65.64 23.33,-110.81 13.39,-89.6 53.82,-5.23 79.66,-57.19 -15.63,-24.65 -48.32,-19.89 -111.58,-27.26 -23.69,-2.75 -43.15,-6.23 -60.4,-8.5 -51.01,-6.73 -49.79,1.27 -61.41,10.36 16.37,24.12 -6.79,10.81 36.94,17.98 8.3,1.36 27.66,1.26 43.18,3.09l-13.9 144.01z"/>
  <path class="fil0" d="M2466.52 666.04c27.49,16.57 45.8,3.12 84.95,5.94 23.69,45.58 34.61,211.09 41.74,274.41 13.71,121.61 -19.49,173.97 -127.94,190.55 -121.4,18.55 -133.06,-59.12 -158.95,-148.41 -19.22,-66.29 -60.79,-194.13 -66.39,-254.76 46.16,-32.98 56.86,0.13 76.33,-42.33 -2.03,-1.28 -5.4,-4.98 -6.6,-2.86 -1.19,2.09 -5.04,-2.17 -6.7,-2.47 -33.65,-6.1 -215.1,50.45 -220.32,53.36 -36.57,20.41 -13.54,0.27 -25.13,28.17 29.37,16.64 53.25,-2.4 91.12,-4.16 19.03,84.02 59.08,181.21 86.31,268.16 34.55,110.34 75.08,162.67 220.4,139.4 311.78,-49.92 124.26,-301.4 154.62,-512.97 42.3,-3.25 68.18,8.59 78.19,-25.9l-118.85 -0.28c-104.13,12.12 -96.05,0.61 -102.78,34.15z"/>
  <path class="fil0" d="M3972.26 1207.91c10.84,-30.1 136.93,-105.04 159.74,-107.48 2.13,48.72 -8.24,59.27 -15.31,94.7 -6.55,32.88 -5.32,66.26 -24.29,91.38 -30.14,-12.67 -107.22,-60.1 -120.14,-78.6zm149.81 321.73c10.76,-65.68 56.63,-169.93 72.25,-271.03 22.84,-147.8 80.61,-274.61 -12.8,-243.65 -22.21,7.37 -185.58,113.76 -214.12,135.25 -33.91,25.55 -64.29,48.69 -100.99,76.71 -122.45,93.44 -78.81,74.06 -130.29,56.49 -27.56,-9.41 -25.21,-4.98 -35.12,0.7 9.19,33.21 41.29,34.56 74.69,54.28 33.4,19.71 55.12,41.49 84.65,21.92 -21.54,-36.95 -20.64,-8.66 -40.14,-42.34 18.56,-23.92 86.85,-95.95 132.18,-80.52 23.18,7.89 101.44,69.63 133.17,86.4 0.22,51.46 -10.32,112.81 -35.48,146.1 -33.44,-11.35 -31.72,-28.56 -65.77,-30.75 -4.11,35.9 0.75,28.26 30.6,49.8l93.91 74.66c23.82,20.99 21.89,22.44 57.03,30.87 -8.95,-44.44 -19.72,-39.37 -43.77,-64.89z"/>
  <path class="fil0" d="M3001.77 5178.77c-38.1,-336.46 128.51,-327.27 189.11,-216.6 52.7,96.24 135.92,342.29 -12.87,385.62 -127.97,37.26 -164.74,-67.48 -176.24,-169.02zm-67.36 8.47c15.71,125.28 100.96,236.95 255.65,189.51 130.37,-39.97 154.92,-171.33 115.67,-299.63 -105.56,-344.99 -415.73,-244.13 -371.32,110.12z"/>
  <path class="fil0" d="M3469.96 685.98c-64.81,-15.89 -63.02,2.34 -67.15,5.46 25.97,20.56 -16.55,3.44 30.12,17.44 15.09,4.53 21.84,0.24 34.78,8.02 20.14,12.11 10.27,32.05 5.12,49.67 -29.98,102.61 -75.66,303.63 -105.52,375.6 -32.95,-2.84 -32.21,-6.68 -59.05,0.15l-11.93 6.32c18.01,25.57 5.79,11.98 46.55,22.92l149.53 44.62c53.16,17.72 133.84,65.11 193.6,63.01l25.87 -37.31c17.35,-29.9 42.05,-75.05 43.85,-112.17 -89.56,13.14 -29.21,163.46 -307.07,36.88l121.25 -416.16 87.93 14.27c-9.83,-25.39 -2.94,-17.3 -22.33,-30.94l-165.55 -47.78z"/>
  <path class="fil0" d="M3382.02 4814.71c87.36,-62.82 131.23,-18.43 173.37,55.37 47,82.31 -11.49,136.12 -81.05,153.73 -19.02,-25.14 -92.98,-174.29 -92.32,-209.1zm-55.45 29.73c27.77,63.73 153.67,349.31 158.66,393.6 -35.89,36.09 -53.21,6.97 -48.28,54.46 31.26,1.55 80.08,-21.89 108.53,-35.15 16.04,-7.48 35.23,-17.73 49.67,-24.64 33.68,-16.13 33.83,-4.7 38.64,-37 -29.9,-17.79 -32.1,5.85 -76.86,10 -18.28,-37.99 -62.04,-106.36 -57.98,-153.94 54.76,-36.16 89.56,-41.72 117.24,-104.74 26.07,-59.36 -3.58,-124.56 -38.73,-159.16 -87.59,-86.22 -170.07,-18.48 -237.5,10.07 -77.27,32.7 -52.78,16.74 -62.77,42.17 24.13,21.64 -12.19,1.91 49.38,4.33z"/>
  <path class="fil0" d="M2048.82 5123.81c60.6,46.19 115.52,127.12 232.15,110.47 92.46,-13.2 129.8,-135.31 82.94,-214.48 -35.52,-60.02 -135.57,-131.96 -53.93,-217.99 28.38,-29.9 94.69,-41.12 121.16,6.12 30.71,54.8 -12.29,87.06 1.8,122.19 27.37,-7.53 27.01,-21.33 38.63,-49.98 7.88,-19.45 16.31,-40.64 18.65,-65.43 -65.17,-67 -138.3,-112.36 -228.6,-27.05 -79.99,75.56 -48.86,152.74 10.31,222.23 102.8,120.74 17.79,190.68 -34.05,193.19 -40.75,1.98 -91.14,-25.8 -110.7,-56.65 -28.29,-44.62 -6.17,-91.32 -1.63,-142.08 -39.09,15.14 -11.54,-3.79 -36.26,26.61 -0.51,0.63 -14.13,22.12 -16.25,25.4 -19.4,30.11 -22.44,28.35 -24.22,67.45z"/>
 </g>
</svg>
